<svg width="250" height="200" viewBox="0 0 250 200" fill="none" xmlns="http://www.w3.org/2000/svg">
    <g clip-path="url(#clip0_1_3)">
        <path d="M15.1563 1.99235C11.0938 -1.21078 5.1954 -0.468592 1.99227 3.59391C-1.21085 7.65641 -0.468667 13.5548 3.59383 16.758L234.844 198.008C238.906 201.211 244.805 200.469 248.008 196.406C251.211 192.344 250.469 186.445 246.406 183.242L212.656 156.797L218.047 160.391C221.875 162.93 226.797 163.203 230.899 161.016C235 158.828 237.5 154.61 237.5 150V50.0002C237.5 45.3908 234.961 41.172 230.899 38.9845C226.836 36.797 221.914 37.0314 218.047 39.6095L180.547 64.6095L175 68.3205V75.0002V125V127.266L162.5 117.461V50.0002C162.5 36.2111 151.289 25.0002 137.5 25.0002H44.4923L15.1563 1.99235ZM158.984 162.774L12.6173 47.4611C12.5391 48.2814 12.5001 49.1408 12.5001 50.0002V150C12.5001 163.789 23.711 175 37.5001 175H137.5C146.641 175 154.649 170.078 158.984 162.774Z" fill="#FFD106"/>
    </g>
    <defs>
        <clipPath id="clip0_1_3">
            <rect width="250" height="200" fill="white"/>
        </clipPath>
    </defs>
</svg>
